<svg id="Layer_1" data-name="Layer 1" xmlns="http://www.w3.org/2000/svg" viewBox="0 0 1083.51 283.1"><defs><style>.cls-1{fill:#4785c5;}.cls-2{fill:#fff;}.cls-3{fill:#fdfefe;}.cls-4{fill:#2f302f;}.cls-5{fill:#5a5b5c;}</style></defs><title>tecaluga-logo</title><g id="final_version"><path class="cls-1" d="M37.5,0H282.18a0,0,0,0,1,0,0V245.6a37.5,37.5,0,0,1-37.5,37.5H0a0,0,0,0,1,0,0V37.5A37.5,37.5,0,0,1,37.5,0Z"/><g id="structure"><g id="W-Struc"><circle class="cls-2" cx="197.33" cy="140.97" r="13.79"/><circle class="cls-2" cx="210.19" cy="188.77" r="13.79"/><circle class="cls-2" cx="210.19" cy="93.18" r="13.79"/><rect class="cls-2" x="161.81" y="184.17" width="37.18" height="7.35"/><rect class="cls-2" x="110.01" y="138.22" width="75.37" height="7.35"/><rect class="cls-2" x="161.82" y="90.42" width="36.77" height="7.35"/><rect class="cls-2" x="130.95" y="124.09" width="59.76" height="7.33" transform="translate(-48.56 177.03) rotate(-55.43)"/><rect class="cls-3" x="132.54" y="172.67" width="57.7" height="7.34" transform="translate(202.08 -67.27) rotate(55.43)"/></g><g id="B-Elipses"><circle class="cls-1" cx="210.19" cy="93.18" r="8.27"/><circle class="cls-1" cx="197.33" cy="140.97" r="8.27"/><circle class="cls-1" cx="210.19" cy="188.77" r="8.27"/></g><g id="W-Crown"><path class="cls-2" d="M158.85,243.32H136.66V226.65a76.08,76.08,0,0,1-20.78-8.46l-3,3.3a10.18,10.18,0,0,1-14.37.75l-13-11.72a10.19,10.19,0,0,1-.75-14.37l4.17-4.63a76.08,76.08,0,0,1-8.81-21.21L74.28,170a10.18,10.18,0,0,1-9.63-10.69l.92-17.49a10.18,10.18,0,0,1,10.7-9.63l4,.21a76,76,0,0,1,8.93-21.1l-4.43-4.92A10.18,10.18,0,0,1,85.52,92l13-11.72a10.19,10.19,0,0,1,14.37.75l3.41,3.78a76.11,76.11,0,0,1,20.35-8.21V61.08h22.19v47l-5.79.64a43.13,43.13,0,0,0,0,85.72l5.79.64Zm-45.11-42.19,4.71,3.27A63.5,63.5,0,0,0,144.25,215l1.6.27v-8.76a56.14,56.14,0,0,1,0-109.68V88l-1.6.27a63.51,63.51,0,0,0-25.42,10.3l-4.7,3.22-9-10-8.82,7.94,9.39,10.43-3,4.25a63.44,63.44,0,0,0-10.85,25.87l-1,5.65-12.45-.65-.62,11.85,13.17.69.9,5.08a63.46,63.46,0,0,0,10.58,25.49l3,4.24-9.08,10.09,8.82,7.94Z" transform="translate(-12.93 -10.65)"/></g><g id="B-Crown"><rect class="cls-1" x="130.23" y="198.88" width="9.19" height="27.29"/><rect class="cls-1" x="93.21" y="187.42" width="24.87" height="27.69" rx="2" ry="2" transform="translate(148.88 -29.65) rotate(42)"/><rect class="cls-1" x="72.99" y="137.78" width="24.87" height="27.69" rx="2" ry="2" transform="translate(-83.4 218.35) rotate(-87)"/><rect class="cls-1" x="93.21" y="87.42" width="24.87" height="27.69" rx="2" ry="2" transform="translate(-53.56 86.05) rotate(-42)"/><rect class="cls-1" x="130.23" y="56.93" width="9.19" height="27.69"/><path class="cls-1" d="M152.35,201a49.63,49.63,0,0,1,0-98.64V80.92a70.76,70.76,0,0,0,0,141.41Z" transform="translate(-12.93 -10.65)"/></g></g><path class="cls-4" d="M375.06,54.15h42.61a4.57,4.57,0,0,1,3.54,1.5,5.65,5.65,0,0,1,1.36,3.95v93H408.28q-4.63,0-6.06-1.5t-1.43-6.26V71.17H379q-4,0-3.95-6.53Zm53,0H449.8q3.95,0,3.95,6.53V71.17H428Z" transform="translate(-12.93 -10.65)"/><path class="cls-4" d="M497.18,152.58H482.88q-4.63,0-6.06-1.5t-1.43-6.26V61.91q0-4.76,1.43-6.26t6.06-1.5h14.29Zm40.7-98.43V65.72q0,4.63-1.5,6.06t-6.26,1.43h-27.5V54.15Zm-6.81,39.21v8.17q0,4.9-1,6.19T524.68,109H502.62V93.36Zm8.17,40.16v11.57q0,4.63-1.5,6.06t-6.26,1.43H502.62V133.52Z" transform="translate(-12.93 -10.65)"/><path class="cls-4" d="M588.52,152.58h-1.63a41.93,41.93,0,0,1-9.05-.82,13.14,13.14,0,0,1-6.26-3.34,18.12,18.12,0,0,1-4.08-5.65,34.6,34.6,0,0,1-2.25-9.39A204.86,204.86,0,0,1,564,108.13q0-15.86.21-22.39t1-12.73a33.43,33.43,0,0,1,2.25-9.26,18.44,18.44,0,0,1,4.08-5.58,12.68,12.68,0,0,1,6.26-3.27,45.7,45.7,0,0,1,9.05-.75h1.63ZM594,54.15h17.29q9.94,0,15,3.4t5.11,11.84V81.65q0,2.86-1.91,2.86H612.35c-1.27,0-2-.18-2.31-.54a4.3,4.3,0,0,1-.41-2.31V71A5.64,5.64,0,0,0,609,68q-.61-.88-3.06-.88H594Zm18.38,68.07H629.5q1.9,0,1.91,2.86v12.25q0,8.44-5.11,11.84t-15,3.4H594V139.65h12q2.45,0,3.06-.88a5.63,5.63,0,0,0,.61-3.06V125.08a4.32,4.32,0,0,1,.41-2.31C610.31,122.4,611.08,122.22,612.35,122.22Z" transform="translate(-12.93 -10.65)"/><path class="cls-4" d="M695.53,67.09H682.87q-2.18,0-2.18,1.09v84.4H666.39q-4.63,0-6.06-1.5t-1.43-6.26V61.91q0-4.76,1.43-6.26t6.06-1.5h29.13ZM701,54.15h14.29q4.63,0,6.06,1.5t1.43,6.26v82.77q0,4.77-1.5,6.33t-6,1.57H701V107H686.13V94H701Z" transform="translate(-12.93 -10.65)"/><path class="cls-4" d="M774.76,152.58H760.46q-4.63,0-6.06-1.5T753,144.82V61.91q0-4.76,1.43-6.26t6.06-1.5h14.29Zm21-29.68h19.06q1.5,0,1.5,1.91v24q0,3.81-3.81,3.81H779.52V139.65h12.66c1.45,0,2.2-.16,2.25-.48a8.39,8.39,0,0,0,.07-1.16V124.4c0-.73.09-1.16.27-1.29A1.64,1.64,0,0,1,795.72,122.9Z" transform="translate(-12.93 -10.65)"/><path class="cls-4" d="M861.61,54.15V135.7a5.63,5.63,0,0,0,.61,3.06q.61.89,3.06.88H880v12.93H860q-9.94,0-15-3.4t-5.11-11.84V61.91q0-4.76,1.43-6.26t6.06-1.5Zm22.46,0h14.29q4.63,0,6.06,1.5t1.43,6.26V135.7a5.62,5.62,0,0,0,.61,3.06q.61.89,3.06.88H912v12.93h-7.76q-9.94,0-15-3.4t-5.1-11.84Z" transform="translate(-12.93 -10.65)"/><path class="cls-4" d="M960.85,54.15V135.7a3.92,3.92,0,0,0,1,3q1,1,4.56,1h10.07v12.93H959.22a41.93,41.93,0,0,1-9.05-.82,13.14,13.14,0,0,1-6.26-3.34,18.12,18.12,0,0,1-4.08-5.65,34.6,34.6,0,0,1-2.25-9.39,204.86,204.86,0,0,1-1.23-25.25q0-15.86.21-22.39t1-12.73a33.43,33.43,0,0,1,2.25-9.26,18.44,18.44,0,0,1,4.08-5.58,12.68,12.68,0,0,1,6.26-3.27,45.7,45.7,0,0,1,9.05-.75Zm5.45,0h17.29q9.94,0,15,3.4t5.11,11.84V81.65q0,2.86-1.91,2.86H984.68c-1.27,0-2-.18-2.31-.54a4.3,4.3,0,0,1-.41-2.31V71a5.64,5.64,0,0,0-.61-3.06q-.61-.88-3.06-.88h-12Zm0,44.79h24q13.34,0,13.34,12.25v28.32q0,8.44-1.29,10.75t-7.42,2.31H982V115.82a5.64,5.64,0,0,0-.61-3.06q-.61-.88-3.06-.89h-12Z" transform="translate(-12.93 -10.65)"/><path class="cls-4" d="M1069.22,67.09h-12.66q-2.18,0-2.18,1.09v84.4h-14.29q-4.63,0-6.06-1.5t-1.43-6.26V61.91q0-4.76,1.43-6.26t6.06-1.5h29.13Zm5.45-12.93H1089q4.63,0,6.06,1.5t1.43,6.26v82.77q0,4.77-1.5,6.33t-6,1.57h-14.29V107h-14.84V94h14.84Z" transform="translate(-12.93 -10.65)"/><path class="cls-5" d="M401.26,219.26H384.63a6.89,6.89,0,0,1-1.37-.15,7.09,7.09,0,0,1-1.45-.47,6.73,6.73,0,0,1-1.37-.82,5.57,5.57,0,0,1-1.16-1.22,6.07,6.07,0,0,1-.81-1.67,7,7,0,0,1-.3-2.14V200.31a6.86,6.86,0,0,1,.15-1.37,7,7,0,0,1,.47-1.45,6.49,6.49,0,0,1,.83-1.37,5.77,5.77,0,0,1,1.23-1.16,6.07,6.07,0,0,1,1.66-.81,6.94,6.94,0,0,1,2.13-.3h16.62v4.61H384.63a1.87,1.87,0,0,0-1.38.48,1.93,1.93,0,0,0-.48,1.42v12.44a1.69,1.69,0,0,0,1.86,1.86h16.62Z" transform="translate(-12.93 -10.65)"/><path class="cls-5" d="M436.92,209a11.17,11.17,0,0,1-.8,4.27,9.94,9.94,0,0,1-5.57,5.57,11.12,11.12,0,0,1-4.23.79h-6.24a11.19,11.19,0,0,1-4.24-.79,10,10,0,0,1-3.37-2.21,10.23,10.23,0,0,1-2.22-3.37,11.06,11.06,0,0,1-.81-4.27v-4.86a11.08,11.08,0,0,1,.81-4.26,10,10,0,0,1,5.59-5.57,11.08,11.08,0,0,1,4.24-.8h6.24a11,11,0,0,1,4.23.8,10.22,10.22,0,0,1,3.36,2.21,10,10,0,0,1,2.21,3.37,11.19,11.19,0,0,1,.8,4.26Zm-4.61-4.86a6.72,6.72,0,0,0-.43-2.47,5.34,5.34,0,0,0-3.12-3.12,6.62,6.62,0,0,0-2.44-.43h-6.24a6.67,6.67,0,0,0-2.45.43,5.56,5.56,0,0,0-1.91,1.22,5.4,5.4,0,0,0-1.23,1.9,6.72,6.72,0,0,0-.43,2.47V209a6.72,6.72,0,0,0,.43,2.47,5.4,5.4,0,0,0,1.23,1.9,5.56,5.56,0,0,0,1.91,1.22,6.67,6.67,0,0,0,2.45.43h6.2a6.67,6.67,0,0,0,2.45-.43,5.56,5.56,0,0,0,1.9-1.22,5.4,5.4,0,0,0,1.23-1.9,6.72,6.72,0,0,0,.43-2.47Z" transform="translate(-12.93 -10.65)"/><path class="cls-5" d="M476.06,219.26h-4.64V204.13l-8.17,14.37a2,2,0,0,1-.84.83,2.46,2.46,0,0,1-1.16.28,2.32,2.32,0,0,1-1.12-.28,2,2,0,0,1-.82-.83l-8.2-14.37v15.13h-4.61V195.81a2.31,2.31,0,0,1,1.7-2.25,2.46,2.46,0,0,1,1.46.1,2.17,2.17,0,0,1,1.11.95l10.49,18.23,10.49-18.23a2.25,2.25,0,0,1,1.13-1,2.4,2.4,0,0,1,1.5-.09,2.31,2.31,0,0,1,1.22.83,2.26,2.26,0,0,1,.48,1.42Z" transform="translate(-12.93 -10.65)"/><path class="cls-5" d="M511.74,204.48a9.41,9.41,0,0,1-.39,2.82,7.92,7.92,0,0,1-1.05,2.19,7.42,7.42,0,0,1-1.53,1.62,8.92,8.92,0,0,1-1.82,1.1,9,9,0,0,1-1.91.62,9.17,9.17,0,0,1-1.82.19H492.8v-4.61h10.42a5.34,5.34,0,0,0,1.6-.36,3.83,3.83,0,0,0,1.23-.79,3.42,3.42,0,0,0,.8-1.2,4.19,4.19,0,0,0,.28-1.59v-2.09a6.07,6.07,0,0,0-.37-1.59,3.77,3.77,0,0,0-.77-1.24,3.45,3.45,0,0,0-1.18-.81,4.07,4.07,0,0,0-1.59-.29H492.83a1.9,1.9,0,0,0-1.4.48,1.87,1.87,0,0,0-.48,1.38v18.94h-4.61V200.31a6.45,6.45,0,0,1,.65-3,6.08,6.08,0,0,1,1.61-2,6.37,6.37,0,0,1,2.1-1.11,7.21,7.21,0,0,1,2.09-.35h10.42a9.14,9.14,0,0,1,2.8.4,8.11,8.11,0,0,1,2.19,1.06,7.26,7.26,0,0,1,1.61,1.53,9.48,9.48,0,0,1,1.1,1.82,8.76,8.76,0,0,1,.63,1.91,9.21,9.21,0,0,1,.19,1.82Z" transform="translate(-12.93 -10.65)"/><path class="cls-5" d="M545.62,219.26H541V213h-16.2v6.24h-4.61V206.55a13.4,13.4,0,0,1,1-5.12,12,12,0,0,1,2.66-4,12.1,12.1,0,0,1,4-2.62,13.39,13.39,0,0,1,5.07-.94h10.38a2.32,2.32,0,0,1,.9.18,2.28,2.28,0,0,1,.74.5,2.26,2.26,0,0,1,.5.74,2.31,2.31,0,0,1,.18.9Zm-20.8-10.85H541v-10h-8.1l-.9.06a9.12,9.12,0,0,0-1.58.31,9.88,9.88,0,0,0-1.89.76,6.63,6.63,0,0,0-1.83,1.42,7.26,7.26,0,0,0-1.37,2.26,8.89,8.89,0,0,0-.54,3.29Z" transform="translate(-12.93 -10.65)"/><path class="cls-5" d="M581.37,202.39a9.39,9.39,0,0,1-.39,2.82,7.91,7.91,0,0,1-1.05,2.19,7.43,7.43,0,0,1-1.53,1.62,9.24,9.24,0,0,1-1.82,1.11,8.75,8.75,0,0,1-1.91.63,9.21,9.21,0,0,1-1.82.19l9.62,8.31h-7.12l-9.6-8.31h-3.31v-4.61h10.42a5.31,5.31,0,0,0,1.59-.36,3.93,3.93,0,0,0,1.24-.79,3.37,3.37,0,0,0,.81-1.2,4.26,4.26,0,0,0,.28-1.6v-2.91a1.41,1.41,0,0,0-.1-.59.71.71,0,0,0-.25-.3.72.72,0,0,0-.32-.12l-.31,0h-15.2v20.8H556V196.17a2.35,2.35,0,0,1,.67-1.65,2.17,2.17,0,0,1,.74-.5,2.37,2.37,0,0,1,.92-.18h17.49a5.55,5.55,0,0,1,2.61.56,5.31,5.31,0,0,1,1.73,1.4,5.45,5.45,0,0,1,1,1.82,6.39,6.39,0,0,1,.29,1.83Z" transform="translate(-12.93 -10.65)"/><path class="cls-5" d="M613.77,198.45H603.62v20.8H599v-20.8H588.84v-4.61h24.93Z" transform="translate(-12.93 -10.65)"/><path class="cls-5" d="M626.81,219.26H622.2V193.85h4.61Z" transform="translate(-12.93 -10.65)"/><path class="cls-5" d="M660.54,219.26h-21a2.37,2.37,0,0,1-.92-.18,2.22,2.22,0,0,1-1.22-1.22,2.37,2.37,0,0,1-.18-.92V193.85h4.61v20.8h18.73Z" transform="translate(-12.93 -10.65)"/><path class="cls-5" d="M673.58,204.23h16.18V193.85h4.61v25.41h-4.61V208.87H673.58v10.38H669V193.85h4.61Z" transform="translate(-12.93 -10.65)"/><path class="cls-5" d="M729.69,219.26h-4.61V213h-16.2v6.24h-4.61V206.55a13.41,13.41,0,0,1,1-5.12,12,12,0,0,1,2.66-4,12.1,12.1,0,0,1,4-2.62,13.39,13.39,0,0,1,5.07-.94h10.38a2.33,2.33,0,0,1,.9.18,2.28,2.28,0,0,1,1.24,1.24,2.33,2.33,0,0,1,.18.9Zm-20.8-10.85h16.2v-10H717l-.9.06a9.14,9.14,0,0,0-1.58.31,9.88,9.88,0,0,0-1.89.76A6.62,6.62,0,0,0,710.8,201a7.26,7.26,0,0,0-1.37,2.26,8.89,8.89,0,0,0-.54,3.29Z" transform="translate(-12.93 -10.65)"/><path class="cls-5" d="M765.45,217.29a2.27,2.27,0,0,1-.19.92,2.37,2.37,0,0,1-.5.74,2.24,2.24,0,0,1-.74.49,2.33,2.33,0,0,1-.9.18,2.48,2.48,0,0,1-.86-.16,2,2,0,0,1-.77-.51l-16.83-17.58v17.9h-4.61V195.81a2.21,2.21,0,0,1,.4-1.28,2.47,2.47,0,0,1,1-.86,2.34,2.34,0,0,1,1.35-.13,2.19,2.19,0,0,1,1.19.65l16.83,17.56v-17.9h4.61Z" transform="translate(-12.93 -10.65)"/><path class="cls-5" d="M801.17,208.63a11.07,11.07,0,0,1-.81,4.27,10,10,0,0,1-5.59,5.56,11.08,11.08,0,0,1-4.24.8H778.09a2.37,2.37,0,0,1-.92-.18,2.22,2.22,0,0,1-1.22-1.22,2.37,2.37,0,0,1-.18-.92V196.17a2.36,2.36,0,0,1,.66-1.65,2.19,2.19,0,0,1,.74-.5,2.37,2.37,0,0,1,.92-.18h12.44a11.08,11.08,0,0,1,4.24.8,10,10,0,0,1,5.59,5.57,11.1,11.1,0,0,1,.81,4.26Zm-4.61-4.15a6.73,6.73,0,0,0-.43-2.46,5.37,5.37,0,0,0-1.23-1.9,5.56,5.56,0,0,0-1.91-1.22,6.67,6.67,0,0,0-2.45-.43H780.38v16.2h10.15a6.67,6.67,0,0,0,2.45-.43,5.56,5.56,0,0,0,1.91-1.22,5.38,5.38,0,0,0,1.23-1.9,6.71,6.71,0,0,0,.43-2.47Z" transform="translate(-12.93 -10.65)"/><path class="cls-5" d="M837.36,209a11.18,11.18,0,0,1-.8,4.27,9.94,9.94,0,0,1-5.57,5.57,11.13,11.13,0,0,1-4.23.79h-6.24a11.19,11.19,0,0,1-4.24-.79,10,10,0,0,1-3.37-2.21,10.23,10.23,0,0,1-2.22-3.37,11.05,11.05,0,0,1-.81-4.27v-4.86a11.07,11.07,0,0,1,.81-4.26,10,10,0,0,1,5.59-5.57,11.08,11.08,0,0,1,4.24-.8h6.24a11,11,0,0,1,4.23.8,10.22,10.22,0,0,1,3.36,2.21,10,10,0,0,1,2.21,3.37,11.2,11.2,0,0,1,.8,4.26Zm-4.61-4.86a6.73,6.73,0,0,0-.43-2.47,5.34,5.34,0,0,0-3.12-3.12,6.62,6.62,0,0,0-2.44-.43h-6.24a6.67,6.67,0,0,0-2.45.43,5.56,5.56,0,0,0-1.91,1.22,5.4,5.4,0,0,0-1.23,1.9,6.71,6.71,0,0,0-.43,2.47V209a6.71,6.71,0,0,0,.43,2.47,5.4,5.4,0,0,0,1.23,1.9,5.56,5.56,0,0,0,1.91,1.22,6.67,6.67,0,0,0,2.45.43h6.2a6.67,6.67,0,0,0,2.45-.43,5.56,5.56,0,0,0,1.91-1.22,5.4,5.4,0,0,0,1.23-1.9,6.73,6.73,0,0,0,.43-2.47Z" transform="translate(-12.93 -10.65)"/><path class="cls-5" d="M886.31,198.45H876.16v20.8h-4.61v-20.8H861.38v-4.61h24.93Z" transform="translate(-12.93 -10.65)"/><path class="cls-5" d="M917.67,219.26H901a7.38,7.38,0,0,1-2.09-.34,6.14,6.14,0,0,1-2.1-1.11,6.21,6.21,0,0,1-1.61-2,6.44,6.44,0,0,1-.65-3V196.17a2.36,2.36,0,0,1,.67-1.65,2.17,2.17,0,0,1,.74-.5,2.37,2.37,0,0,1,.92-.18h20.75v4.61H899.2v14.34a1.87,1.87,0,0,0,.48,1.38,1.9,1.9,0,0,0,1.4.48h16.59Zm-2.07-10.38H901v-4.64H915.6Z" transform="translate(-12.93 -10.65)"/><path class="cls-5" d="M949.72,219.26H933.1a6.89,6.89,0,0,1-1.37-.15,7.09,7.09,0,0,1-1.45-.47,6.7,6.7,0,0,1-1.37-.82,5.58,5.58,0,0,1-1.16-1.22,6.07,6.07,0,0,1-.81-1.67,7,7,0,0,1-.3-2.14V200.31a6.93,6.93,0,0,1,.15-1.37,7.11,7.11,0,0,1,.47-1.45,6.51,6.51,0,0,1,.83-1.37,5.77,5.77,0,0,1,1.23-1.16,6.08,6.08,0,0,1,1.66-.81,6.94,6.94,0,0,1,2.13-.3h16.62v4.61H933.1a1.87,1.87,0,0,0-1.38.48,1.93,1.93,0,0,0-.48,1.42v12.44a1.69,1.69,0,0,0,1.86,1.86h16.62Z" transform="translate(-12.93 -10.65)"/><path class="cls-5" d="M963.73,204.23h16.18V193.85h4.61v25.41h-4.61V208.87H963.73v10.38h-4.61V193.85h4.61Z" transform="translate(-12.93 -10.65)"/></g></svg>